<svg width="180" height="75" viewBox="0 0 180 75" fill="none" xmlns="http://www.w3.org/2000/svg">
<path d="M82.9216 12.4233C88.9339 12.4233 93.3818 13.9264 96.2652 16.9325C99.21 19.9386 100.682 24.5092 100.682 30.6442V58.4356H91.756V50.9816C90.5904 53.6196 88.8419 55.6442 86.5106 57.0552C84.2407 58.4049 81.572 59.0797 78.5045 59.0797C75.5597 59.0797 72.8603 58.4969 70.4063 57.3313C67.9523 56.1043 66.0198 54.4172 64.6088 52.2699C63.2591 50.1227 62.5842 47.73 62.5842 45.092C62.5842 41.8405 63.4124 39.2945 65.0689 37.454C66.7867 35.5521 69.5781 34.2024 73.4431 33.4049C77.3695 32.6074 82.7376 32.2086 89.5474 32.2086H91.664V29.5399C91.664 26.1043 90.9278 23.6196 89.4554 22.0859C88.0443 20.5521 85.7131 19.7853 82.4615 19.7853C77.3695 19.7853 72.2775 21.3497 67.1855 24.4785L64.4247 17.9448C66.8174 16.2883 69.7008 14.9693 73.075 13.9877C76.5106 12.9448 79.7928 12.4233 82.9216 12.4233ZM80.1609 52.1779C83.5351 52.1779 86.2959 51.0429 88.4431 48.773C90.5904 46.4417 91.664 43.4662 91.664 39.8466V37.454H90.0075C85.2223 37.454 81.5413 37.6687 78.9646 38.0981C76.3879 38.5276 74.5474 39.2638 73.4431 40.3067C72.3388 41.2883 71.7867 42.7301 71.7867 44.6319C71.7867 46.7791 72.5536 48.5889 74.0873 50.0613C75.6824 51.4724 77.7069 52.1779 80.1609 52.1779Z" fill="#2C365D"/>
<path d="M57.1472 51.9018C58.5583 51.9018 59.9386 51.8098 61.2883 51.6258V58.7117C59.7546 58.9571 57.6994 59.0797 56.0429 59.0797C50.2147 59.0797 45.8589 57.6687 42.9755 54.8466C40.1534 51.9632 38.7423 47.8221 38.7423 42.4233V20.7055H30V13.5276H38.7423V0H48.0368V13.5276H60.3681V20.7055H48.0368V42.0552C48.0368 48.6196 51.0736 51.9018 57.1472 51.9018Z" fill="#2C365D"/>
<path d="M105.711 0H115.006V58.4356H105.711V0Z" fill="#2C365D"/>
<path d="M120.352 0H129.646V58.4356H120.352V0Z" fill="#2C365D"/>
<path d="M179.691 13.6196L152.911 75H143.525L151.347 57.3313L132.482 13.6196H142.237L156.224 47.9448L170.396 13.6196H179.691Z" fill="#2C365D"/>
<path d="M0 3.37143C0 1.50944 1.47598 0 3.2967 0H21.7033C23.524 0 25 1.50944 25 3.37143V5.58738L14.3812 12.9464C13.375 13.6437 12.7747 14.7901 12.7747 16.0143C12.7747 17.2385 13.375 18.3849 14.3812 19.0822L25 26.4412V32.1374L14.3812 39.4964C13.375 40.1937 12.7747 41.3401 12.7747 42.5643C12.7747 43.7885 13.375 44.9349 14.3812 45.6322L25 52.9912V55.6286C25 57.4906 23.524 59 21.7033 59H3.2967C1.47598 59 0 57.4906 0 55.6286V3.37143Z" fill="#4EEECA"/>
</svg>
